<mxfile host="app.diagrams.net" modified="2023-02-07T19:43:12.726Z" agent="5.0 (Macintosh; Intel Mac OS X 10_15_7) AppleWebKit/537.36 (KHTML, like Gecko) Chrome/109.0.0.0 Safari/537.36" etag="3wEWry179wcnjojCQPom" version="20.8.13" type="github">
  <diagram name="Page-1" id="-dqnDWmHI4KpS8x99t0E">
    <mxGraphModel dx="2203" dy="1863" grid="1" gridSize="10" guides="1" tooltips="1" connect="1" arrows="1" fold="1" page="1" pageScale="1" pageWidth="850" pageHeight="1100" math="0" shadow="0">
      <root>
        <mxCell id="0" />
        <mxCell id="1" parent="0" />
        <mxCell id="aSZPK6pYw0Ljr9cqZKYC-1" value="Hospital" style="whiteSpace=wrap;html=1;align=center;" parent="1" vertex="1">
          <mxGeometry x="280" y="-240" width="100" height="40" as="geometry" />
        </mxCell>
        <mxCell id="aSZPK6pYw0Ljr9cqZKYC-2" value="Room" style="whiteSpace=wrap;html=1;align=center;" parent="1" vertex="1">
          <mxGeometry x="130" y="120" width="100" height="40" as="geometry" />
        </mxCell>
        <mxCell id="aSZPK6pYw0Ljr9cqZKYC-3" value="Patient" style="whiteSpace=wrap;html=1;align=center;" parent="1" vertex="1">
          <mxGeometry x="410" y="120" width="100" height="40" as="geometry" />
        </mxCell>
        <mxCell id="aSZPK6pYw0Ljr9cqZKYC-4" value="Employee" style="whiteSpace=wrap;html=1;align=center;" parent="1" vertex="1">
          <mxGeometry x="800" y="120" width="100" height="40" as="geometry" />
        </mxCell>
        <mxCell id="aSZPK6pYw0Ljr9cqZKYC-5" value="Invoice" style="whiteSpace=wrap;html=1;align=center;" parent="1" vertex="1">
          <mxGeometry x="-110" y="120" width="100" height="40" as="geometry" />
        </mxCell>
        <mxCell id="aSZPK6pYw0Ljr9cqZKYC-6" value="ISSUES" style="shape=rhombus;perimeter=rhombusPerimeter;whiteSpace=wrap;html=1;align=center;" parent="1" vertex="1">
          <mxGeometry x="-90" y="-40" width="80" height="30" as="geometry" />
        </mxCell>
        <mxCell id="aSZPK6pYw0Ljr9cqZKYC-7" value="CONTAINS" style="shape=rhombus;perimeter=rhombusPerimeter;whiteSpace=wrap;html=1;align=center;" parent="1" vertex="1">
          <mxGeometry x="140" y="-40" width="90" height="30" as="geometry" />
        </mxCell>
        <mxCell id="aSZPK6pYw0Ljr9cqZKYC-8" value="EMPLOYS" style="shape=rhombus;perimeter=rhombusPerimeter;whiteSpace=wrap;html=1;align=center;" parent="1" vertex="1">
          <mxGeometry x="680" y="-40" width="70" height="30" as="geometry" />
        </mxCell>
        <mxCell id="aSZPK6pYw0Ljr9cqZKYC-9" value="SERVES" style="shape=rhombus;perimeter=rhombusPerimeter;whiteSpace=wrap;html=1;align=center;" parent="1" vertex="1">
          <mxGeometry x="420" y="-40" width="80" height="30" as="geometry" />
        </mxCell>
        <mxCell id="aSZPK6pYw0Ljr9cqZKYC-10" value="Physician" style="whiteSpace=wrap;html=1;align=center;" parent="1" vertex="1">
          <mxGeometry x="710" y="280" width="100" height="40" as="geometry" />
        </mxCell>
        <mxCell id="aSZPK6pYw0Ljr9cqZKYC-11" value="Nurse" style="whiteSpace=wrap;html=1;align=center;" parent="1" vertex="1">
          <mxGeometry x="950" y="280" width="100" height="40" as="geometry" />
        </mxCell>
        <mxCell id="aSZPK6pYw0Ljr9cqZKYC-12" value="HOSPITALIZED_IN" style="shape=rhombus;perimeter=rhombusPerimeter;whiteSpace=wrap;html=1;align=center;" parent="1" vertex="1">
          <mxGeometry x="90" y="250" width="135" height="40" as="geometry" />
        </mxCell>
        <mxCell id="aSZPK6pYw0Ljr9cqZKYC-13" value="PAYS" style="shape=rhombus;perimeter=rhombusPerimeter;whiteSpace=wrap;html=1;align=center;" parent="1" vertex="1">
          <mxGeometry x="-100" y="360" width="80" height="30" as="geometry" />
        </mxCell>
        <mxCell id="aSZPK6pYw0Ljr9cqZKYC-15" value="HAS" style="shape=rhombus;double=1;perimeter=rhombusPerimeter;whiteSpace=wrap;html=1;align=center;" parent="1" vertex="1">
          <mxGeometry x="220" y="390" width="80" height="40" as="geometry" />
        </mxCell>
        <mxCell id="aSZPK6pYw0Ljr9cqZKYC-16" value="Health Record" style="shape=ext;margin=3;double=1;whiteSpace=wrap;html=1;align=center;" parent="1" vertex="1">
          <mxGeometry x="110" y="510" width="100" height="40" as="geometry" />
        </mxCell>
        <mxCell id="aSZPK6pYw0Ljr9cqZKYC-17" value="Instruction" style="whiteSpace=wrap;html=1;align=center;fontStyle=0" parent="1" vertex="1">
          <mxGeometry x="660" y="450" width="100" height="40" as="geometry" />
        </mxCell>
        <mxCell id="aSZPK6pYw0Ljr9cqZKYC-19" value="MONITORED_BY" style="shape=rhombus;perimeter=rhombusPerimeter;whiteSpace=wrap;html=1;align=center;" parent="1" vertex="1">
          <mxGeometry x="510" y="260" width="120" height="40" as="geometry" />
        </mxCell>
        <mxCell id="aSZPK6pYw0Ljr9cqZKYC-20" value="EXECUTE" style="shape=rhombus;perimeter=rhombusPerimeter;whiteSpace=wrap;html=1;align=center;" parent="1" vertex="1">
          <mxGeometry x="830" y="450" width="90" height="30" as="geometry" />
        </mxCell>
        <mxCell id="aSZPK6pYw0Ljr9cqZKYC-21" value="GIVES" style="shape=rhombus;perimeter=rhombusPerimeter;whiteSpace=wrap;html=1;align=center;" parent="1" vertex="1">
          <mxGeometry x="690" y="360" width="100" height="30" as="geometry" />
        </mxCell>
        <mxCell id="aSZPK6pYw0Ljr9cqZKYC-22" value="RECEIVES" style="shape=rhombus;perimeter=rhombusPerimeter;whiteSpace=wrap;html=1;align=center;" parent="1" vertex="1">
          <mxGeometry x="490" y="455" width="90" height="30" as="geometry" />
        </mxCell>
        <mxCell id="aSZPK6pYw0Ljr9cqZKYC-23" value="PROVIDES" style="shape=rhombus;perimeter=rhombusPerimeter;whiteSpace=wrap;html=1;align=center;" parent="1" vertex="1">
          <mxGeometry x="710" y="620" width="150" height="40" as="geometry" />
        </mxCell>
        <mxCell id="aSZPK6pYw0Ljr9cqZKYC-26" value="D" style="ellipse;whiteSpace=wrap;html=1;" parent="1" vertex="1">
          <mxGeometry x="840" y="190" width="20" height="20" as="geometry" />
        </mxCell>
        <mxCell id="aSZPK6pYw0Ljr9cqZKYC-32" value="U" style="endArrow=none;html=1;rounded=0;exitX=0.44;exitY=-0.025;exitDx=0;exitDy=0;exitPerimeter=0;entryX=0;entryY=1;entryDx=0;entryDy=0;" parent="1" source="aSZPK6pYw0Ljr9cqZKYC-10" target="aSZPK6pYw0Ljr9cqZKYC-26" edge="1">
          <mxGeometry relative="1" as="geometry">
            <mxPoint x="720" y="230" as="sourcePoint" />
            <mxPoint x="880" y="230" as="targetPoint" />
          </mxGeometry>
        </mxCell>
        <mxCell id="aSZPK6pYw0Ljr9cqZKYC-33" value="" style="shape=link;html=1;rounded=0;exitX=0.5;exitY=1;exitDx=0;exitDy=0;entryX=0.5;entryY=0;entryDx=0;entryDy=0;" parent="1" source="aSZPK6pYw0Ljr9cqZKYC-4" target="aSZPK6pYw0Ljr9cqZKYC-26" edge="1">
          <mxGeometry relative="1" as="geometry">
            <mxPoint x="720" y="230" as="sourcePoint" />
            <mxPoint x="880" y="230" as="targetPoint" />
          </mxGeometry>
        </mxCell>
        <mxCell id="aSZPK6pYw0Ljr9cqZKYC-34" value="1" style="resizable=0;html=1;align=right;verticalAlign=bottom;" parent="aSZPK6pYw0Ljr9cqZKYC-33" connectable="0" vertex="1">
          <mxGeometry x="1" relative="1" as="geometry" />
        </mxCell>
        <mxCell id="aSZPK6pYw0Ljr9cqZKYC-35" value="U" style="endArrow=none;html=1;rounded=0;entryX=0.5;entryY=0;entryDx=0;entryDy=0;exitX=1;exitY=1;exitDx=0;exitDy=0;" parent="1" source="aSZPK6pYw0Ljr9cqZKYC-26" target="aSZPK6pYw0Ljr9cqZKYC-11" edge="1">
          <mxGeometry relative="1" as="geometry">
            <mxPoint x="720" y="230" as="sourcePoint" />
            <mxPoint x="880" y="230" as="targetPoint" />
          </mxGeometry>
        </mxCell>
        <mxCell id="aSZPK6pYw0Ljr9cqZKYC-36" value="" style="shape=link;html=1;rounded=0;exitX=1;exitY=0.5;exitDx=0;exitDy=0;entryX=0.5;entryY=0;entryDx=0;entryDy=0;" parent="1" source="aSZPK6pYw0Ljr9cqZKYC-1" target="aSZPK6pYw0Ljr9cqZKYC-9" edge="1">
          <mxGeometry relative="1" as="geometry">
            <mxPoint x="350" y="10" as="sourcePoint" />
            <mxPoint x="510" y="10" as="targetPoint" />
          </mxGeometry>
        </mxCell>
        <mxCell id="aSZPK6pYw0Ljr9cqZKYC-37" value="1" style="resizable=0;html=1;align=right;verticalAlign=bottom;" parent="aSZPK6pYw0Ljr9cqZKYC-36" connectable="0" vertex="1">
          <mxGeometry x="1" relative="1" as="geometry" />
        </mxCell>
        <mxCell id="aSZPK6pYw0Ljr9cqZKYC-38" value="" style="shape=link;html=1;rounded=0;entryX=0.5;entryY=0;entryDx=0;entryDy=0;" parent="1" target="aSZPK6pYw0Ljr9cqZKYC-8" edge="1">
          <mxGeometry relative="1" as="geometry">
            <mxPoint x="380" y="-220" as="sourcePoint" />
            <mxPoint x="510" y="10" as="targetPoint" />
          </mxGeometry>
        </mxCell>
        <mxCell id="aSZPK6pYw0Ljr9cqZKYC-39" value="1" style="resizable=0;html=1;align=right;verticalAlign=bottom;" parent="aSZPK6pYw0Ljr9cqZKYC-38" connectable="0" vertex="1">
          <mxGeometry x="1" relative="1" as="geometry" />
        </mxCell>
        <mxCell id="aSZPK6pYw0Ljr9cqZKYC-40" value="N" style="endArrow=none;html=1;rounded=0;exitX=1;exitY=0.5;exitDx=0;exitDy=0;entryX=0.5;entryY=0;entryDx=0;entryDy=0;" parent="1" source="aSZPK6pYw0Ljr9cqZKYC-8" target="aSZPK6pYw0Ljr9cqZKYC-4" edge="1">
          <mxGeometry relative="1" as="geometry">
            <mxPoint x="450" y="10" as="sourcePoint" />
            <mxPoint x="610" y="10" as="targetPoint" />
          </mxGeometry>
        </mxCell>
        <mxCell id="aSZPK6pYw0Ljr9cqZKYC-41" value="" style="shape=link;html=1;rounded=0;exitX=0;exitY=0.5;exitDx=0;exitDy=0;entryX=0.5;entryY=0;entryDx=0;entryDy=0;" parent="1" source="aSZPK6pYw0Ljr9cqZKYC-1" target="aSZPK6pYw0Ljr9cqZKYC-7" edge="1">
          <mxGeometry relative="1" as="geometry">
            <mxPoint x="220" y="10" as="sourcePoint" />
            <mxPoint x="380" y="10" as="targetPoint" />
          </mxGeometry>
        </mxCell>
        <mxCell id="aSZPK6pYw0Ljr9cqZKYC-42" value="1" style="resizable=0;html=1;align=right;verticalAlign=bottom;" parent="aSZPK6pYw0Ljr9cqZKYC-41" connectable="0" vertex="1">
          <mxGeometry x="1" relative="1" as="geometry" />
        </mxCell>
        <mxCell id="aSZPK6pYw0Ljr9cqZKYC-43" value="" style="shape=link;html=1;rounded=0;exitX=0;exitY=0.5;exitDx=0;exitDy=0;entryX=0.5;entryY=0;entryDx=0;entryDy=0;" parent="1" source="aSZPK6pYw0Ljr9cqZKYC-1" target="aSZPK6pYw0Ljr9cqZKYC-6" edge="1">
          <mxGeometry relative="1" as="geometry">
            <mxPoint x="220" y="10" as="sourcePoint" />
            <mxPoint x="380" y="10" as="targetPoint" />
          </mxGeometry>
        </mxCell>
        <mxCell id="aSZPK6pYw0Ljr9cqZKYC-44" value="1" style="resizable=0;html=1;align=right;verticalAlign=bottom;" parent="aSZPK6pYw0Ljr9cqZKYC-43" connectable="0" vertex="1">
          <mxGeometry x="1" relative="1" as="geometry" />
        </mxCell>
        <mxCell id="aSZPK6pYw0Ljr9cqZKYC-45" value="N" style="endArrow=none;html=1;rounded=0;exitX=0.5;exitY=1;exitDx=0;exitDy=0;entryX=0.5;entryY=0;entryDx=0;entryDy=0;" parent="1" source="aSZPK6pYw0Ljr9cqZKYC-6" target="aSZPK6pYw0Ljr9cqZKYC-5" edge="1">
          <mxGeometry relative="1" as="geometry">
            <mxPoint x="220" y="230" as="sourcePoint" />
            <mxPoint x="380" y="230" as="targetPoint" />
          </mxGeometry>
        </mxCell>
        <mxCell id="aSZPK6pYw0Ljr9cqZKYC-46" value="N" style="endArrow=none;html=1;rounded=0;exitX=0.5;exitY=1;exitDx=0;exitDy=0;entryX=0.5;entryY=0;entryDx=0;entryDy=0;" parent="1" source="aSZPK6pYw0Ljr9cqZKYC-7" target="aSZPK6pYw0Ljr9cqZKYC-2" edge="1">
          <mxGeometry relative="1" as="geometry">
            <mxPoint x="220" y="90" as="sourcePoint" />
            <mxPoint x="380" y="90" as="targetPoint" />
          </mxGeometry>
        </mxCell>
        <mxCell id="aSZPK6pYw0Ljr9cqZKYC-47" value="N" style="endArrow=none;html=1;rounded=0;exitX=0.5;exitY=1;exitDx=0;exitDy=0;entryX=0.5;entryY=0;entryDx=0;entryDy=0;" parent="1" source="aSZPK6pYw0Ljr9cqZKYC-9" target="aSZPK6pYw0Ljr9cqZKYC-3" edge="1">
          <mxGeometry relative="1" as="geometry">
            <mxPoint x="220" y="90" as="sourcePoint" />
            <mxPoint x="380" y="90" as="targetPoint" />
          </mxGeometry>
        </mxCell>
        <mxCell id="aSZPK6pYw0Ljr9cqZKYC-48" value="" style="shape=link;html=1;rounded=0;entryX=0.5;entryY=1;entryDx=0;entryDy=0;exitX=1;exitY=0.5;exitDx=0;exitDy=0;" parent="1" source="aSZPK6pYw0Ljr9cqZKYC-13" target="aSZPK6pYw0Ljr9cqZKYC-3" edge="1">
          <mxGeometry relative="1" as="geometry">
            <mxPoint x="120" y="360" as="sourcePoint" />
            <mxPoint x="280" y="360" as="targetPoint" />
            <Array as="points">
              <mxPoint x="170" y="375" />
            </Array>
          </mxGeometry>
        </mxCell>
        <mxCell id="aSZPK6pYw0Ljr9cqZKYC-49" value="1" style="resizable=0;html=1;align=right;verticalAlign=bottom;" parent="aSZPK6pYw0Ljr9cqZKYC-48" connectable="0" vertex="1">
          <mxGeometry x="1" relative="1" as="geometry" />
        </mxCell>
        <mxCell id="aSZPK6pYw0Ljr9cqZKYC-50" value="" style="shape=link;html=1;rounded=0;entryX=0.5;entryY=1;entryDx=0;entryDy=0;" parent="1" target="aSZPK6pYw0Ljr9cqZKYC-3" edge="1">
          <mxGeometry relative="1" as="geometry">
            <mxPoint x="220" y="270" as="sourcePoint" />
            <mxPoint x="280" y="310" as="targetPoint" />
          </mxGeometry>
        </mxCell>
        <mxCell id="aSZPK6pYw0Ljr9cqZKYC-51" value="1" style="resizable=0;html=1;align=right;verticalAlign=bottom;" parent="aSZPK6pYw0Ljr9cqZKYC-50" connectable="0" vertex="1">
          <mxGeometry x="1" relative="1" as="geometry" />
        </mxCell>
        <mxCell id="aSZPK6pYw0Ljr9cqZKYC-52" value="" style="endArrow=none;html=1;rounded=0;exitX=0.5;exitY=1;exitDx=0;exitDy=0;entryX=0.5;entryY=0;entryDx=0;entryDy=0;" parent="1" source="aSZPK6pYw0Ljr9cqZKYC-2" target="aSZPK6pYw0Ljr9cqZKYC-12" edge="1">
          <mxGeometry relative="1" as="geometry">
            <mxPoint x="120" y="240" as="sourcePoint" />
            <mxPoint x="280" y="240" as="targetPoint" />
          </mxGeometry>
        </mxCell>
        <mxCell id="aSZPK6pYw0Ljr9cqZKYC-53" value="" style="endArrow=none;html=1;rounded=0;entryX=1;entryY=0.5;entryDx=0;entryDy=0;" parent="1" target="aSZPK6pYw0Ljr9cqZKYC-15" edge="1">
          <mxGeometry relative="1" as="geometry">
            <mxPoint x="460" y="160" as="sourcePoint" />
            <mxPoint x="370" y="360" as="targetPoint" />
          </mxGeometry>
        </mxCell>
        <mxCell id="aSZPK6pYw0Ljr9cqZKYC-54" value="" style="endArrow=none;html=1;rounded=0;exitX=0.5;exitY=1;exitDx=0;exitDy=0;entryX=1;entryY=0.5;entryDx=0;entryDy=0;" parent="1" source="aSZPK6pYw0Ljr9cqZKYC-15" target="aSZPK6pYw0Ljr9cqZKYC-16" edge="1">
          <mxGeometry relative="1" as="geometry">
            <mxPoint x="280" y="360" as="sourcePoint" />
            <mxPoint x="440" y="360" as="targetPoint" />
            <Array as="points">
              <mxPoint x="260" y="530" />
            </Array>
          </mxGeometry>
        </mxCell>
        <mxCell id="aSZPK6pYw0Ljr9cqZKYC-59" value="" style="shape=link;html=1;rounded=0;exitX=0.5;exitY=1;exitDx=0;exitDy=0;entryX=0.5;entryY=0;entryDx=0;entryDy=0;" parent="1" source="aSZPK6pYw0Ljr9cqZKYC-10" target="aSZPK6pYw0Ljr9cqZKYC-21" edge="1">
          <mxGeometry relative="1" as="geometry">
            <mxPoint x="700" y="510" as="sourcePoint" />
            <mxPoint x="860" y="510" as="targetPoint" />
          </mxGeometry>
        </mxCell>
        <mxCell id="aSZPK6pYw0Ljr9cqZKYC-60" value="1" style="resizable=0;html=1;align=right;verticalAlign=bottom;" parent="aSZPK6pYw0Ljr9cqZKYC-59" connectable="0" vertex="1">
          <mxGeometry x="1" relative="1" as="geometry" />
        </mxCell>
        <mxCell id="aSZPK6pYw0Ljr9cqZKYC-61" value="" style="endArrow=none;html=1;rounded=0;exitX=0.5;exitY=1;exitDx=0;exitDy=0;entryX=0.5;entryY=0;entryDx=0;entryDy=0;" parent="1" source="aSZPK6pYw0Ljr9cqZKYC-21" target="aSZPK6pYw0Ljr9cqZKYC-17" edge="1">
          <mxGeometry relative="1" as="geometry">
            <mxPoint x="630" y="510" as="sourcePoint" />
            <mxPoint x="790" y="510" as="targetPoint" />
          </mxGeometry>
        </mxCell>
        <mxCell id="aSZPK6pYw0Ljr9cqZKYC-63" value="" style="endArrow=none;html=1;rounded=0;exitX=1;exitY=0.5;exitDx=0;exitDy=0;entryX=0;entryY=0.5;entryDx=0;entryDy=0;" parent="1" source="aSZPK6pYw0Ljr9cqZKYC-22" target="aSZPK6pYw0Ljr9cqZKYC-17" edge="1">
          <mxGeometry relative="1" as="geometry">
            <mxPoint x="630" y="450" as="sourcePoint" />
            <mxPoint x="790" y="450" as="targetPoint" />
          </mxGeometry>
        </mxCell>
        <mxCell id="aSZPK6pYw0Ljr9cqZKYC-64" value="" style="shape=link;html=1;rounded=0;exitX=0.5;exitY=1;exitDx=0;exitDy=0;entryX=1;entryY=0.5;entryDx=0;entryDy=0;" parent="1" source="aSZPK6pYw0Ljr9cqZKYC-11" target="aSZPK6pYw0Ljr9cqZKYC-20" edge="1">
          <mxGeometry relative="1" as="geometry">
            <mxPoint x="770" y="450" as="sourcePoint" />
            <mxPoint x="930" y="450" as="targetPoint" />
          </mxGeometry>
        </mxCell>
        <mxCell id="aSZPK6pYw0Ljr9cqZKYC-65" value="1" style="resizable=0;html=1;align=right;verticalAlign=bottom;" parent="aSZPK6pYw0Ljr9cqZKYC-64" connectable="0" vertex="1">
          <mxGeometry x="1" relative="1" as="geometry" />
        </mxCell>
        <mxCell id="aSZPK6pYw0Ljr9cqZKYC-66" value="" style="endArrow=none;html=1;rounded=0;exitX=1;exitY=0.5;exitDx=0;exitDy=0;entryX=0;entryY=0.5;entryDx=0;entryDy=0;" parent="1" source="aSZPK6pYw0Ljr9cqZKYC-17" target="aSZPK6pYw0Ljr9cqZKYC-20" edge="1">
          <mxGeometry relative="1" as="geometry">
            <mxPoint x="770" y="450" as="sourcePoint" />
            <mxPoint x="930" y="450" as="targetPoint" />
          </mxGeometry>
        </mxCell>
        <mxCell id="aSZPK6pYw0Ljr9cqZKYC-67" value="" style="shape=link;html=1;rounded=0;exitX=1;exitY=0.5;exitDx=0;exitDy=0;" parent="1" source="aSZPK6pYw0Ljr9cqZKYC-23" edge="1">
          <mxGeometry relative="1" as="geometry">
            <mxPoint x="490" y="500" as="sourcePoint" />
            <mxPoint x="1000" y="320" as="targetPoint" />
            <Array as="points">
              <mxPoint x="1000" y="640" />
            </Array>
          </mxGeometry>
        </mxCell>
        <mxCell id="aSZPK6pYw0Ljr9cqZKYC-68" value="1" style="resizable=0;html=1;align=right;verticalAlign=bottom;" parent="aSZPK6pYw0Ljr9cqZKYC-67" connectable="0" vertex="1">
          <mxGeometry x="1" relative="1" as="geometry" />
        </mxCell>
        <mxCell id="aSZPK6pYw0Ljr9cqZKYC-69" value="" style="endArrow=none;html=1;rounded=0;exitX=0.5;exitY=0;exitDx=0;exitDy=0;" parent="1" source="aSZPK6pYw0Ljr9cqZKYC-13" target="aSZPK6pYw0Ljr9cqZKYC-5" edge="1">
          <mxGeometry relative="1" as="geometry">
            <mxPoint x="100" y="320" as="sourcePoint" />
            <mxPoint x="260" y="320" as="targetPoint" />
          </mxGeometry>
        </mxCell>
        <mxCell id="6vHMBVvT9jH56hpRkgGV-1" value="" style="shape=link;html=1;rounded=0;entryX=0;entryY=0.5;entryDx=0;entryDy=0;" edge="1" parent="1" target="aSZPK6pYw0Ljr9cqZKYC-22">
          <mxGeometry relative="1" as="geometry">
            <mxPoint x="460" y="160" as="sourcePoint" />
            <mxPoint x="520" y="310" as="targetPoint" />
          </mxGeometry>
        </mxCell>
        <mxCell id="6vHMBVvT9jH56hpRkgGV-2" value="1" style="resizable=0;html=1;align=right;verticalAlign=bottom;" connectable="0" vertex="1" parent="6vHMBVvT9jH56hpRkgGV-1">
          <mxGeometry x="1" relative="1" as="geometry" />
        </mxCell>
        <mxCell id="6vHMBVvT9jH56hpRkgGV-3" value="" style="shape=link;html=1;rounded=0;entryX=0.5;entryY=0;entryDx=0;entryDy=0;" edge="1" parent="1" target="aSZPK6pYw0Ljr9cqZKYC-19">
          <mxGeometry relative="1" as="geometry">
            <mxPoint x="460" y="160" as="sourcePoint" />
            <mxPoint x="400" y="250" as="targetPoint" />
          </mxGeometry>
        </mxCell>
        <mxCell id="6vHMBVvT9jH56hpRkgGV-4" value="1" style="resizable=0;html=1;align=right;verticalAlign=bottom;" connectable="0" vertex="1" parent="6vHMBVvT9jH56hpRkgGV-3">
          <mxGeometry x="1" relative="1" as="geometry" />
        </mxCell>
        <mxCell id="6vHMBVvT9jH56hpRkgGV-5" value="" style="endArrow=none;html=1;rounded=0;entryX=0;entryY=0.5;entryDx=0;entryDy=0;exitX=1;exitY=0.5;exitDx=0;exitDy=0;" edge="1" parent="1" source="aSZPK6pYw0Ljr9cqZKYC-19" target="aSZPK6pYw0Ljr9cqZKYC-10">
          <mxGeometry relative="1" as="geometry">
            <mxPoint x="240" y="250" as="sourcePoint" />
            <mxPoint x="400" y="250" as="targetPoint" />
          </mxGeometry>
        </mxCell>
        <mxCell id="6vHMBVvT9jH56hpRkgGV-6" value="Medicine" style="whiteSpace=wrap;html=1;align=center;" vertex="1" parent="1">
          <mxGeometry x="390" y="620" width="100" height="40" as="geometry" />
        </mxCell>
        <mxCell id="6vHMBVvT9jH56hpRkgGV-8" value="" style="shape=link;html=1;rounded=0;exitX=0.5;exitY=1;exitDx=0;exitDy=0;entryX=0.5;entryY=0;entryDx=0;entryDy=0;" edge="1" parent="1" source="aSZPK6pYw0Ljr9cqZKYC-3" target="6vHMBVvT9jH56hpRkgGV-11">
          <mxGeometry relative="1" as="geometry">
            <mxPoint x="350" y="480" as="sourcePoint" />
            <mxPoint x="440" y="370" as="targetPoint" />
          </mxGeometry>
        </mxCell>
        <mxCell id="6vHMBVvT9jH56hpRkgGV-9" value="1" style="resizable=0;html=1;align=right;verticalAlign=bottom;" connectable="0" vertex="1" parent="6vHMBVvT9jH56hpRkgGV-8">
          <mxGeometry x="1" relative="1" as="geometry" />
        </mxCell>
        <mxCell id="6vHMBVvT9jH56hpRkgGV-10" value="" style="endArrow=none;html=1;rounded=0;entryX=0;entryY=0.5;entryDx=0;entryDy=0;" edge="1" parent="1" source="6vHMBVvT9jH56hpRkgGV-6" target="aSZPK6pYw0Ljr9cqZKYC-23">
          <mxGeometry relative="1" as="geometry">
            <mxPoint x="350" y="480" as="sourcePoint" />
            <mxPoint x="510" y="480" as="targetPoint" />
          </mxGeometry>
        </mxCell>
        <mxCell id="6vHMBVvT9jH56hpRkgGV-11" value="TAKES" style="shape=rhombus;perimeter=rhombusPerimeter;whiteSpace=wrap;html=1;align=center;" vertex="1" parent="1">
          <mxGeometry x="370" y="370" width="100" height="40" as="geometry" />
        </mxCell>
        <mxCell id="6vHMBVvT9jH56hpRkgGV-12" value="" style="endArrow=none;html=1;rounded=0;exitX=0.5;exitY=1;exitDx=0;exitDy=0;entryX=0.5;entryY=0;entryDx=0;entryDy=0;" edge="1" parent="1" source="6vHMBVvT9jH56hpRkgGV-11" target="6vHMBVvT9jH56hpRkgGV-6">
          <mxGeometry relative="1" as="geometry">
            <mxPoint x="370" y="480" as="sourcePoint" />
            <mxPoint x="530" y="480" as="targetPoint" />
          </mxGeometry>
        </mxCell>
        <mxCell id="6vHMBVvT9jH56hpRkgGV-13" value="Pharmacy" style="whiteSpace=wrap;html=1;align=center;" vertex="1" parent="1">
          <mxGeometry x="30" y="620" width="100" height="40" as="geometry" />
        </mxCell>
        <mxCell id="6vHMBVvT9jH56hpRkgGV-14" value="BELONGS_TO" style="shape=rhombus;perimeter=rhombusPerimeter;whiteSpace=wrap;html=1;align=center;" vertex="1" parent="1">
          <mxGeometry x="210" y="620" width="100" height="40" as="geometry" />
        </mxCell>
        <mxCell id="6vHMBVvT9jH56hpRkgGV-18" value="" style="shape=link;html=1;rounded=0;entryX=0;entryY=0.5;entryDx=0;entryDy=0;exitX=1;exitY=0.5;exitDx=0;exitDy=0;" edge="1" parent="1" source="6vHMBVvT9jH56hpRkgGV-14" target="6vHMBVvT9jH56hpRkgGV-6">
          <mxGeometry relative="1" as="geometry">
            <mxPoint x="380" y="290" as="sourcePoint" />
            <mxPoint x="540" y="290" as="targetPoint" />
          </mxGeometry>
        </mxCell>
        <mxCell id="6vHMBVvT9jH56hpRkgGV-19" value="1" style="resizable=0;html=1;align=right;verticalAlign=bottom;" connectable="0" vertex="1" parent="6vHMBVvT9jH56hpRkgGV-18">
          <mxGeometry x="1" relative="1" as="geometry" />
        </mxCell>
        <mxCell id="6vHMBVvT9jH56hpRkgGV-20" value="" style="endArrow=none;html=1;rounded=0;exitX=1;exitY=0.5;exitDx=0;exitDy=0;entryX=0;entryY=0.5;entryDx=0;entryDy=0;" edge="1" parent="1" source="6vHMBVvT9jH56hpRkgGV-13" target="6vHMBVvT9jH56hpRkgGV-14">
          <mxGeometry relative="1" as="geometry">
            <mxPoint x="380" y="290" as="sourcePoint" />
            <mxPoint x="540" y="290" as="targetPoint" />
          </mxGeometry>
        </mxCell>
      </root>
    </mxGraphModel>
  </diagram>
</mxfile>
